<svg width="20" height="17" viewBox="0 0 20 17" fill="none" xmlns="http://www.w3.org/2000/svg">
<path d="M15 11.5872C14.3 11.5872 13.7083 11.3463 13.225 10.8645C12.7417 10.3826 12.5 9.79279 12.5 9.09494C12.5 8.39709 12.7417 7.80725 13.225 7.3254C13.7083 6.84356 14.3 6.60263 15 6.60263C15.7 6.60263 16.2917 6.84356 16.775 7.3254C17.2583 7.80725 17.5 8.39709 17.5 9.09494C17.5 9.79279 17.2583 10.3826 16.775 10.8645C16.2917 11.3463 15.7 11.5872 15 11.5872ZM10 16.5719V15.1762C10 14.7774 10.104 14.4079 10.312 14.0676C10.5207 13.7266 10.8167 13.4814 11.2 13.3319C11.8 13.0826 12.421 12.8959 13.063 12.7716C13.7043 12.6466 14.35 12.5842 15 12.5842C15.65 12.5842 16.296 12.6466 16.938 12.7716C17.5793 12.8959 18.2 13.0826 18.8 13.3319C19.1833 13.4814 19.4793 13.7266 19.688 14.0676C19.896 14.4079 20 14.7774 20 15.1762V16.5719H10ZM8 8.59648C6.9 8.59648 5.95833 8.20602 5.175 7.42509C4.39167 6.64417 4 5.7054 4 4.60879C4 3.51217 4.39167 2.5734 5.175 1.79248C5.95833 1.01156 6.9 0.621094 8 0.621094C9.1 0.621094 10.0417 1.01156 10.825 1.79248C11.6083 2.5734 12 3.51217 12 4.60879C12 5.7054 11.6083 6.64417 10.825 7.42509C10.0417 8.20602 9.1 8.59648 8 8.59648ZM0 16.5719V13.7805C0 13.2156 0.141667 12.6962 0.425 12.2223C0.708333 11.7491 1.1 11.3879 1.6 11.1386C2.6 10.6402 3.63767 10.258 4.713 9.99217C5.78767 9.72632 6.88333 9.5934 8 9.5934C8.58333 9.5934 9.16667 9.64325 9.75 9.74294C10.3333 9.84263 10.9167 9.95894 11.5 10.0919L9.8 11.7866C9.28333 12.1688 8.854 12.6383 8.512 13.1953C8.17067 13.7516 8 14.2125 8 14.578V16.5719H0Z" fill="black"/>
</svg>
