<svg width="18" height="21" viewBox="0 0 18 21" fill="none" xmlns="http://www.w3.org/2000/svg">
<path d="M15 6.98139H17C17.2652 6.98139 17.5196 7.08642 17.7071 7.27338C17.8946 7.46034 18 7.71391 18 7.97831V19.9414C18 20.2058 17.8946 20.4594 17.7071 20.6463C17.5196 20.8333 17.2652 20.9383 17 20.9383H1C0.734784 20.9383 0.48043 20.8333 0.292893 20.6463C0.105357 20.4594 0 20.2058 0 19.9414V7.97831C0 7.71391 0.105357 7.46034 0.292893 7.27338C0.48043 7.08642 0.734784 6.98139 1 6.98139H3V5.98447C3 4.39807 3.63214 2.87664 4.75736 1.75488C5.88258 0.633126 7.4087 0.00292969 9 0.00292969C10.5913 0.00292969 12.1174 0.633126 13.2426 1.75488C14.3679 2.87664 15 4.39807 15 5.98447V6.98139ZM13 6.98139V5.98447C13 4.92687 12.5786 3.91258 11.8284 3.16474C11.0783 2.41691 10.0609 1.99678 9 1.99678C7.93913 1.99678 6.92172 2.41691 6.17157 3.16474C5.42143 3.91258 5 4.92687 5 5.98447V6.98139H13ZM8 12.9629V14.9568H10V12.9629H8ZM4 12.9629V14.9568H6V12.9629H4ZM12 12.9629V14.9568H14V12.9629H12Z" fill="black"/>
</svg>
