<svg width="20" height="21" viewBox="0 0 20 21" fill="none" xmlns="http://www.w3.org/2000/svg">
<path d="M15.5859 15.155C14.7227 13.6596 13.1016 12.6549 11.25 12.6549H8.75C6.89844 12.6549 5.27734 13.6596 4.41406 15.155C5.78906 16.6815 7.78125 17.6395 10 17.6395C12.2188 17.6395 14.2109 16.6776 15.5859 15.155ZM20 10.1626C20 15.669 15.5234 20.1318 10 20.1318C4.47656 20.1318 0 15.669 0 10.1626C0 4.65615 4.47656 0.193359 10 0.193359C15.5234 0.193359 20 4.65615 20 10.1626ZM10 10.7857C11.5547 10.7857 12.8125 9.53172 12.8125 7.98182C12.8125 6.43192 11.5547 5.17797 10 5.17797C8.44531 5.17797 7.1875 6.43192 7.1875 7.98182C7.1875 9.53172 8.44531 10.7857 10 10.7857Z" fill="black"/>
</svg>
