<svg width="20" height="13" viewBox="0 0 20 13" fill="none" xmlns="http://www.w3.org/2000/svg">
<path d="M10.1062 1.44855L7.08125 3.89101C6.57812 4.29601 6.48125 5.02501 6.8625 5.54528C7.26562 6.09982 8.05 6.20886 8.59062 5.78828L11.6938 3.3832C11.9125 3.21497 12.225 3.25236 12.3969 3.47043C12.5688 3.68851 12.5281 4.00005 12.3094 4.17139L11.6562 4.67609L17.1938 9.76039H18.5C19.3281 9.76039 20 9.09059 20 8.26501V4.27732C20 3.45174 19.3281 2.78193 18.5 2.78193H15.9781L15.8562 2.70405L13.5875 1.25539C13.1094 0.950086 12.55 0.788086 11.9812 0.788086C11.3 0.788086 10.6375 1.02174 10.1062 1.44855ZM10.8188 5.32409L9.20312 6.57647C8.21875 7.34286 6.79063 7.14347 6.05312 6.13409C5.35938 5.18389 5.53437 3.85674 6.45 3.11839L9.05 1.02174C8.6875 0.869086 8.29688 0.791201 7.9 0.791201C7.3125 0.788086 6.74062 0.962547 6.25 1.28655L4 2.78193H1.5C0.671875 2.78193 0 3.45174 0 4.27732V8.26501C0 9.09059 0.671875 9.76039 1.5 9.76039H4.88125L7.7375 12.3586C8.35 12.9163 9.29688 12.8727 9.85625 12.262C10.0281 12.072 10.1438 11.8508 10.2031 11.6203L10.7344 12.1063C11.3438 12.6639 12.2937 12.6234 12.8531 12.0159C12.9937 11.8633 13.0969 11.6857 13.1625 11.5019C13.7688 11.9069 14.5938 11.8228 15.1031 11.2682C15.6625 10.6607 15.6219 9.71366 15.0125 9.15601L10.8188 5.32409Z" fill="black"/>
</svg>
