<svg width="20" height="17" viewBox="0 0 20 17" fill="none" xmlns="http://www.w3.org/2000/svg">
<path d="M18 0.400391H2C0.9 0.400391 0.00999999 1.29762 0.00999999 2.39424L0 14.3573C0 15.4539 0.9 16.3512 2 16.3512H18C19.1 16.3512 20 15.4539 20 14.3573V2.39424C20 1.29762 19.1 0.400391 18 0.400391ZM17.6 4.63731L10.53 9.04371C10.21 9.2431 9.79 9.2431 9.47 9.04371L2.4 4.63731C2.29973 4.5812 2.21192 4.50538 2.14189 4.41446C2.07186 4.32353 2.02106 4.21938 1.99258 4.10832C1.96409 3.99725 1.9585 3.88158 1.97616 3.7683C1.99381 3.65502 2.03434 3.54649 2.09528 3.44928C2.15623 3.35207 2.23632 3.2682 2.33073 3.20274C2.42513 3.13728 2.53187 3.0916 2.6445 3.06845C2.75712 3.04531 2.87328 3.04519 2.98595 3.06811C3.09863 3.09102 3.20546 3.13648 3.3 3.20174L10 7.37885L16.7 3.20174C16.7945 3.13648 16.9014 3.09102 17.014 3.06811C17.1267 3.04519 17.2429 3.04531 17.3555 3.06845C17.4681 3.0916 17.5749 3.13728 17.6693 3.20274C17.7637 3.2682 17.8438 3.35207 17.9047 3.44928C17.9657 3.54649 18.0062 3.65502 18.0238 3.7683C18.0415 3.88158 18.0359 3.99725 18.0074 4.10832C17.9789 4.21938 17.9281 4.32353 17.8581 4.41446C17.7881 4.50538 17.7003 4.5812 17.6 4.63731Z" fill="black"/>
</svg>
