<svg width="22" height="22" viewBox="0 0 22 22" fill="none" xmlns="http://www.w3.org/2000/svg">
<path d="M21 15.7366V8.36816H1V19.9471C1 20.2263 1.1109 20.494 1.30831 20.6914C1.50572 20.8888 1.77346 20.9997 2.05263 20.9997H11" stroke="black" stroke-width="1.7" stroke-linecap="round" stroke-linejoin="round"/>
<path d="M1 3.63173C1 3.35256 1.1109 3.08482 1.30831 2.88741C1.50572 2.69 1.77346 2.5791 2.05263 2.5791H19.9474C20.2265 2.5791 20.4943 2.69 20.6917 2.88741C20.8891 3.08482 21 3.35256 21 3.63173V8.36857H1V3.63173Z" stroke="black" stroke-width="1.7" stroke-linejoin="round"/>
<path d="M6.78906 1V5.21053M15.2101 1V5.21053" stroke="black" stroke-width="1.7" stroke-linecap="round"/>
<path d="M14.1578 18.8948C16.1926 18.8948 17.8421 17.2453 17.8421 15.2106C17.8421 13.1758 16.1926 11.5264 14.1578 11.5264C12.1231 11.5264 10.4736 13.1758 10.4736 15.2106C10.4736 17.2453 12.1231 18.8948 14.1578 18.8948Z" stroke="black" stroke-width="1.7"/>
<path d="M17.3164 17.8418L20.4743 20.4734" stroke="black" stroke-width="1.7" stroke-linecap="round" stroke-linejoin="round"/>
</svg>
