<svg width="15" height="14" viewBox="0 0 15 14" fill="none" xmlns="http://www.w3.org/2000/svg">
<path d="M14.4081 9.56248H4.45101L4.95095 8.5442L13.2577 8.52915C13.5386 8.52915 13.7794 8.3285 13.8296 8.05094L14.9799 1.61186C15.01 1.44298 14.9649 1.26909 14.8545 1.137C14.8 1.07199 14.732 1.01962 14.6552 0.983531C14.5784 0.94744 14.4946 0.928488 14.4098 0.92799L3.84238 0.892877L3.75209 0.468175C3.69524 0.197302 3.45112 0 3.17356 0H0.590235C0.433695 0 0.283566 0.0621852 0.172876 0.172876C0.0621853 0.283566 0 0.433695 0 0.590235C0 0.746775 0.0621853 0.896904 0.172876 1.00759C0.283566 1.11828 0.433695 1.18047 0.590235 1.18047H2.69535L3.08996 3.05651L4.06142 7.76L2.81072 9.80158C2.74577 9.88925 2.70665 9.99334 2.69779 10.1021C2.68892 10.2108 2.71067 10.3199 2.76056 10.4169C2.86089 10.6159 3.0632 10.7413 3.28726 10.7413H4.33731C4.11345 11.0386 3.99254 11.4008 3.99287 11.7729C3.99287 12.7193 4.76201 13.4885 5.70839 13.4885C6.65478 13.4885 7.42392 12.7193 7.42392 11.7729C7.42392 11.4001 7.30019 11.0372 7.07948 10.7413H9.77316C9.5493 11.0386 9.42839 11.4008 9.42871 11.7729C9.42871 12.7193 10.1979 13.4885 11.1442 13.4885C12.0906 13.4885 12.8598 12.7193 12.8598 11.7729C12.8598 11.4001 12.736 11.0372 12.5153 10.7413H14.4098C14.7341 10.7413 15 10.4771 15 10.151C14.999 9.99467 14.9362 9.84502 14.8254 9.73476C14.7145 9.62449 14.5645 9.56256 14.4081 9.56248ZM4.08817 2.05663L13.7159 2.0884L12.7728 7.36874L5.21012 7.38212L4.08817 2.05663ZM5.70839 12.3013C5.41746 12.3013 5.18002 12.0639 5.18002 11.7729C5.18002 11.482 5.41746 11.2446 5.70839 11.2446C5.99933 11.2446 6.23676 11.482 6.23676 11.7729C6.23676 11.9131 6.1811 12.0475 6.08201 12.1465C5.98292 12.2456 5.84853 12.3013 5.70839 12.3013ZM11.1442 12.3013C10.8533 12.3013 10.6159 12.0639 10.6159 11.7729C10.6159 11.482 10.8533 11.2446 11.1442 11.2446C11.4352 11.2446 11.6726 11.482 11.6726 11.7729C11.6726 11.9131 11.6169 12.0475 11.5179 12.1465C11.4188 12.2456 11.2844 12.3013 11.1442 12.3013Z" fill="white"/>
</svg>
