<svg width="18" height="20" viewBox="0 0 18 20" fill="none" xmlns="http://www.w3.org/2000/svg">
<path d="M1.42857 20H10C10.3788 19.9996 10.7419 19.849 11.0097 19.5812C11.2776 19.3133 11.4282 18.9502 11.4286 18.5714V16.4286H10V18.5714H1.42857V1.42857H10V3.57143H11.4286V1.42857C11.4282 1.04981 11.2776 0.686664 11.0097 0.418837C10.7419 0.151009 10.3788 0.000378198 10 0H1.42857C1.04981 0.000378198 0.686664 0.151009 0.418837 0.418837C0.15101 0.686664 0.000378198 1.04981 0 1.42857V18.5714C0.000378198 18.9502 0.15101 19.3133 0.418837 19.5812C0.686664 19.849 1.04981 19.9996 1.42857 20Z" fill="black"/>
<path d="M11.8466 13.2753L14.408 10.7139H4.28516V9.2853H14.408L11.8466 6.72387L12.8566 5.71387L17.1423 9.99958L12.8566 14.2853L11.8466 13.2753Z" fill="black"/>
</svg>
