<svg width="25" height="25" viewBox="0 0 25 25" fill="none" xmlns="http://www.w3.org/2000/svg">
<path d="M18.4584 22.2217H5.95836C5.77418 22.2217 5.59755 22.2948 5.46731 22.4251C5.33708 22.5553 5.26392 22.7319 5.26392 22.9161C5.26392 23.1003 5.33708 23.2769 5.46731 23.4072C5.59755 23.5374 5.77418 23.6106 5.95836 23.6106H18.4584C18.6425 23.6106 18.8192 23.5374 18.9494 23.4072C19.0796 23.2769 19.1528 23.1003 19.1528 22.9161C19.1528 22.7319 19.0796 22.5553 18.9494 22.4251C18.8192 22.2948 18.6425 22.2217 18.4584 22.2217Z" fill="black"/>
<path d="M10.2224 6.8539C10.2572 7.07021 10.2461 7.29143 10.1899 7.50319C10.1337 7.71495 10.0335 7.91252 9.896 8.08306C10.747 9.53768 11.9177 10.7797 13.3196 11.715C13.5557 11.8747 13.7988 12.0136 14.0141 12.1525C14.2346 11.9087 14.5256 11.7395 14.8467 11.6686C15.1678 11.5977 15.5029 11.6285 15.8057 11.7567C16.8882 10.323 17.6271 8.65987 17.9654 6.89556C15.4625 6.01156 12.7347 5.99688 10.2224 6.8539Z" fill="black"/>
<path d="M12.3262 1.38867C9.74773 1.38867 7.27485 2.41298 5.45158 4.23625C3.62831 6.05952 2.604 8.5324 2.604 11.1109C2.604 11.4234 2.604 11.729 2.65261 12.0345C2.83157 13.9097 3.55141 15.6925 4.72464 17.1662C5.89787 18.6399 7.47396 19.7411 9.2613 20.3358C11.0487 20.9306 12.9703 20.9933 14.7926 20.5163C16.6149 20.0393 18.2594 19.0432 19.5262 17.6491C20.793 16.255 21.6275 14.5229 21.9283 12.6634C22.2291 10.8039 21.9833 8.897 21.2206 7.1746C20.4579 5.4522 19.2113 3.98845 17.6323 2.96128C16.0533 1.93412 14.2099 1.38777 12.3262 1.38867ZM19.5137 14.6456C18.5014 14.6421 17.4935 14.5114 16.5137 14.2567C16.2809 14.5731 15.9393 14.7922 15.5547 14.8717C15.17 14.9511 14.7695 14.8855 14.4304 14.6873C13.0027 15.8361 11.345 16.665 9.56928 17.1178C9.51542 17.4036 9.38584 17.6698 9.19406 17.8884C9.00229 18.1071 8.75534 18.2702 8.479 18.3609L8.27762 18.4026C7.3792 17.9059 6.58092 17.2465 5.92345 16.4581H6.38178C6.44819 16.1274 6.61628 15.8258 6.86254 15.5953C7.1088 15.3649 7.42093 15.2171 7.75527 15.1727C8.08962 15.1284 8.42948 15.1896 8.72733 15.3478C9.02518 15.5061 9.26613 15.7534 9.4165 16.0553C10.9907 15.6398 12.4616 14.902 13.7359 13.8887C13.6247 13.6332 13.5817 13.3533 13.6109 13.0762C13.3193 12.9095 13.0276 12.7359 12.7429 12.5484C11.23 11.5453 9.96062 10.2166 9.02761 8.65951C8.74877 8.73606 8.45442 8.73581 8.1757 8.6588C7.89698 8.58178 7.64426 8.43086 7.44428 8.22201C6.15256 9.16825 4.98587 10.2743 3.97206 11.5137V11.1178C3.97543 10.7156 4.00792 10.314 4.06928 9.91645C4.90227 8.89421 5.88571 8.00443 6.98595 7.27756C6.94689 6.97099 6.9984 6.65968 7.13414 6.38203C7.26988 6.10439 7.48391 5.87253 7.74984 5.71506C7.6665 5.41645 7.58317 5.11784 7.52067 4.81228C7.52067 4.71506 7.52067 4.6109 7.44428 4.36784C7.74741 4.14521 8.06527 3.94336 8.39567 3.76367C8.46512 4.1734 8.49289 4.38867 8.5415 4.60395C8.59012 4.81923 8.68039 5.19423 8.76373 5.4859H8.93734C9.23497 5.55473 9.50703 5.70641 9.72206 5.9234C12.4406 4.9647 15.4024 4.94758 18.1318 5.87478V5.18034C18.907 5.94418 19.5251 6.85249 19.9512 7.85395C19.6133 7.65488 19.2707 7.47432 18.9234 7.31228C18.5293 9.1722 17.725 10.9207 16.5693 12.4303C16.7186 12.6802 16.7978 12.9657 16.7984 13.2567C17.9401 13.493 19.1051 13.5979 20.2707 13.5692C20.1542 13.9328 20.0127 14.2878 19.8471 14.6317L19.5137 14.6456Z" fill="black"/>
</svg>
