<svg width="20" height="20" viewBox="0 0 20 20" fill="none" xmlns="http://www.w3.org/2000/svg">
<path d="M1.16517e-06 2.44444C1.16517e-06 1.79614 0.25754 1.17438 0.715962 0.715961C1.17438 0.257539 1.79614 0 2.44445 0H14.4444C15.0928 0 15.7145 0.257539 16.1729 0.715961C16.6314 1.17438 16.8889 1.79614 16.8889 2.44444V3.56267C17.7326 3.61904 18.5234 3.994 19.1011 4.61159C19.6787 5.22919 20.0001 6.04325 20 6.88889V16.2222C20 17.1063 19.6488 17.9541 19.0237 18.5792C18.3986 19.2044 17.5507 19.5556 16.6667 19.5556H3.33689C2.45284 19.5556 1.60499 19.2044 0.979868 18.5792C0.354746 17.9541 0.00355667 17.1063 0.00355667 16.2222V6.88889H1.16517e-06V2.66667H0.00977887C0.00319167 2.59278 -7.08087e-05 2.51863 1.16517e-06 2.44444ZM15.5556 2.44444C15.5556 1.83111 15.0578 1.33333 14.4444 1.33333H2.44445C2.14976 1.33333 1.86715 1.4504 1.65877 1.65877C1.4504 1.86714 1.33333 2.14976 1.33333 2.44444C1.33333 2.73913 1.4504 3.02174 1.65877 3.23012C1.86715 3.43849 2.14976 3.55556 2.44445 3.55556H15.5556V2.44444ZM14 11.5556C13.8232 11.5556 13.6536 11.6258 13.5286 11.7508C13.4036 11.8758 13.3333 12.0454 13.3333 12.2222C13.3333 12.399 13.4036 12.5686 13.5286 12.6936C13.6536 12.8187 13.8232 12.8889 14 12.8889H16.2222C16.399 12.8889 16.5686 12.8187 16.6936 12.6936C16.8187 12.5686 16.8889 12.399 16.8889 12.2222C16.8889 12.0454 16.8187 11.8758 16.6936 11.7508C16.5686 11.6258 16.399 11.5556 16.2222 11.5556H14Z" fill="black"/>
</svg>
